<?xml version="1.0" encoding="utf-8"?>
<!-- Generator: Adobe Illustrator 22.0.1, SVG Export Plug-In . SVG Version: 6.00 Build 0)  -->
<svg version="1.1" id="Capa_1" xmlns="http://www.w3.org/2000/svg" xmlns:xlink="http://www.w3.org/1999/xlink" x="0px" y="0px"
	 viewBox="0 0 512 512" style="enable-background:new 0 0 512 512;" xml:space="preserve">
<style type="text/css">
	.st0{fill:#509DEA;}
</style>
<g>
	<path class="st0" d="M510.6,137.6c-3.7-16.6-14.2-31-28.9-39.5c-14.7-8.5-32.5-10.4-48.7-5.3c-16.2,5.1-29.6,16.9-36.7,32.4
		L370,182.1V15c0-8.3-6.7-15-15-15H15C6.7,0,0,6.7,0,15v482c0,8.3,6.7,15,15,15h340c8.3,0,15-6.7,15-15v-36.8
		c6.3,1.5,13.1-1.2,16.4-7.1l23.8-41.2c18.2,3.4,37.4-4.8,47.2-21.7c12.4-21.5,5-49.1-16.5-61.5l-29.1-16.8l89-126.2
		C510.7,171.7,514.2,154.2,510.6,137.6z M340,482H30V30h310v217l-8.5,18.5l-29.1-16.8c-21.5-12.4-49.1-5-61.5,16.5
		c-9.8,16.9-7.3,37.6,4.8,51.7l-23.8,41.2c-4.1,7.2-1.7,16.3,5.5,20.5l112.6,65V482z M368,425.1l-112.6-65l15-26l112.6,65L368,425.1
		z M426,354.6c7.2,4.1,9.6,13.3,5.5,20.5c-4.1,7.2-13.3,9.6-20.5,5.5l-138.6-80c-7.2-4.1-9.6-13.3-5.5-20.5s13.3-9.6,20.5-5.5
		L426,354.6z M476.4,168.3l-90.6,128.5l-28.2-16.3l66-142.7c3.7-7.9,10.3-13.7,18.6-16.4c8.3-2.6,17-1.7,24.6,2.7
		c7.6,4.4,12.7,11.5,14.6,20C483.2,152.6,481.4,161.2,476.4,168.3L476.4,168.3z"/>
	<path class="st0" d="M75,90h220c8.3,0,15-6.7,15-15s-6.7-15-15-15H75c-8.3,0-15,6.7-15,15S66.7,90,75,90z"/>
	<path class="st0" d="M75,150h220c8.3,0,15-6.7,15-15s-6.7-15-15-15H75c-8.3,0-15,6.7-15,15S66.7,150,75,150z"/>
	<path class="st0" d="M75,210h220c8.3,0,15-6.7,15-15s-6.7-15-15-15H75c-8.3,0-15,6.7-15,15S66.7,210,75,210z"/>
	<path class="st0" d="M175,250H75c-8.3,0-15,6.7-15,15s6.7,15,15,15h100c8.3,0,15-6.7,15-15S183.3,250,175,250z"/>
	<path class="st0" d="M115,340c-30.3,0-55,24.7-55,55s24.7,55,55,55s55-24.7,55-55S145.3,340,115,340z M115,420
		c-13.8,0-25-11.2-25-25s11.2-25,25-25s25,11.2,25,25S128.8,420,115,420z"/>
</g>
</svg>
