<?xml version="1.0" encoding="utf-8"?>
<!-- Generator: Adobe Illustrator 22.0.1, SVG Export Plug-In . SVG Version: 6.00 Build 0)  -->
<svg version="1.1" id="Capa_1" xmlns="http://www.w3.org/2000/svg" xmlns:xlink="http://www.w3.org/1999/xlink" x="0px" y="0px"
	 viewBox="0 0 512 512" style="enable-background:new 0 0 512 512;" xml:space="preserve">
<style type="text/css">
	.st0{fill:#509DEA;}
</style>
<g>
	<path class="st0" d="M467,0H45C20.2,0,0,20.2,0,45v422c0,24.8,20.2,45,45,45h422c24.8,0,45-20.2,45-45V45C512,20.2,491.8,0,467,0z
		 M482,45v196H271V30h196C475.3,30,482,36.7,482,45z M45,30h196v211H30V45C30,36.7,36.7,30,45,30z M30,467V271h211v211H45
		C36.7,482,30,475.3,30,467z M467,482H271V271h211v196C482,475.3,475.3,482,467,482z"/>
	<path class="st0" d="M91,151h30v30c0,8.3,6.7,15,15,15s15-6.7,15-15v-30h30c8.3,0,15-6.7,15-15s-6.7-15-15-15h-30V91
		c0-8.3-6.7-15-15-15s-15,6.7-15,15v30H91c-8.3,0-15,6.7-15,15S82.7,151,91,151z"/>
	<path class="st0" d="M157.2,376l21.2-21.2c5.9-5.9,5.9-15.4,0-21.2c-5.9-5.9-15.4-5.9-21.2,0L136,354.8l-21.2-21.2
		c-5.9-5.9-15.4-5.9-21.2,0c-5.9,5.9-5.9,15.4,0,21.2l21.2,21.2l-21.2,21.2c-5.9,5.9-5.9,15.4,0,21.2s15.4,5.9,21.2,0l21.2-21.2
		l21.2,21.2c5.9,5.9,15.4,5.9,21.2,0s5.9-15.4,0-21.2L157.2,376z"/>
	<path class="st0" d="M421,331h-90c-8.3,0-15,6.7-15,15s6.7,15,15,15h90c8.3,0,15-6.7,15-15S429.3,331,421,331z"/>
	<path class="st0" d="M421,391h-90c-8.3,0-15,6.7-15,15s6.7,15,15,15h90c8.3,0,15-6.7,15-15S429.3,391,421,391z"/>
	<path class="st0" d="M331,151h90c8.3,0,15-6.7,15-15s-6.7-15-15-15h-90c-8.3,0-15,6.7-15,15S322.7,151,331,151z"/>
</g>
</svg>
