<?xml version="1.0" encoding="utf-8"?>
<!-- Generator: Adobe Illustrator 22.0.1, SVG Export Plug-In . SVG Version: 6.00 Build 0)  -->
<svg version="1.1" id="Capa_1" xmlns="http://www.w3.org/2000/svg" xmlns:xlink="http://www.w3.org/1999/xlink" x="0px" y="0px"
	 viewBox="0 0 512 512" style="enable-background:new 0 0 512 512;" xml:space="preserve">
<style type="text/css">
	.st0{fill:#509DEA;}
</style>
<g>
	<g>
		<path class="st0" d="M498.8,161.1c-17.5-17.5-46.1-17.5-63.6,0c-5.4,5.4-39.9,39.9-45.1,45.2V87.4c0-12-4.7-23.3-13.2-31.8
			l-42.4-42.4C325.9,4.7,314.6,0,302.6,0H45C20.2,0,0,20.2,0,45v422c0,24.8,20.2,45,45,45h300c24.8,0,45-20.2,45-45V333.6
			l108.8-108.9C516.4,207.2,516.4,178.7,498.8,161.1z M300,30c2.8,0,8.3-0.5,13.2,4.4l42.4,42.4c4.8,4.8,4.4,10,4.4,13.2h-60V30z
			 M360,467c0,8.3-6.7,15-15,15H45c-8.3,0-15-6.7-15-15V45c0-8.3,6.7-15,15-15h225v75c0,8.3,6.7,15,15,15h75v116.3
			c0,0-44.3,44.3-44.3,44.3l-21.2,21.2c-1.6,1.6-2.9,3.7-3.6,5.9l-21.2,63.6c-1.8,5.4-0.4,11.3,3.6,15.4c4,4,10,5.4,15.4,3.6
			l63.6-21.2c2.2-0.7,4.2-2,5.9-3.6l1.8-1.8L360,467L360,467z M326.4,312.4l21.2,21.2l-8.1,8.1l-31.8,10.6l10.6-31.8L326.4,312.4z
			 M368.8,312.4l-21.2-21.2c11.3-11.3,61.5-61.5,72.1-72.2l21.2,21.2L368.8,312.4z M477.6,203.6L462.1,219l-21.2-21.2l15.5-15.5
			c5.9-5.8,15.4-5.8,21.2,0C483.4,188.2,483.5,197.7,477.6,203.6z"/>
	</g>
</g>
<g>
	<g>
		<path class="st0" d="M285,150H75c-8.3,0-15,6.7-15,15s6.7,15,15,15h210c8.3,0,15-6.7,15-15S293.3,150,285,150z"/>
	</g>
</g>
<g>
	<g>
		<path class="st0" d="M225,210H75c-8.3,0-15,6.7-15,15s6.7,15,15,15h150c8.3,0,15-6.7,15-15S233.3,210,225,210z"/>
	</g>
</g>
<g>
	<g>
		<path class="st0" d="M225,270H75c-8.3,0-15,6.7-15,15s6.7,15,15,15h150c8.3,0,15-6.7,15-15S233.3,270,225,270z"/>
	</g>
</g>
<g>
	<g>
		<path class="st0" d="M225,330H75c-8.3,0-15,6.7-15,15s6.7,15,15,15h150c8.3,0,15-6.7,15-15S233.3,330,225,330z"/>
	</g>
</g>
<g>
	<g>
		<path class="st0" d="M285,422h-90c-8.3,0-15,6.7-15,15s6.7,15,15,15h90c8.3,0,15-6.7,15-15S293.3,422,285,422z"/>
	</g>
</g>
</svg>
