<?xml version="1.0" encoding="utf-8"?>
<!-- Generator: Adobe Illustrator 22.0.1, SVG Export Plug-In . SVG Version: 6.00 Build 0)  -->
<svg version="1.1" id="Layer_1" xmlns="http://www.w3.org/2000/svg" xmlns:xlink="http://www.w3.org/1999/xlink" x="0px" y="0px"
	 viewBox="0 0 512 512" style="enable-background:new 0 0 512 512;" xml:space="preserve">
<style type="text/css">
	.st0{fill:#509DEA;}
</style>
<g>
	<path class="st0" d="M512,2.9H0v376.5h271.1v129.8l75.3-37.6l75.3,37.6V379.3H512V2.9z M240.9,289H119.7l-29.3-29.3V122.6
		l29.3-29.3h272.6l29.3,29.3v92.7c-19.1-19.6-45.8-31.7-75.3-31.7C288.2,183.6,240.9,230.9,240.9,289z M346.4,364.3
		c-41.5,0-75.3-33.8-75.3-75.3s33.8-75.3,75.3-75.3s75.3,33.8,75.3,75.3S387.9,364.3,346.4,364.3z M301.2,384.2
		c9.4,4.5,19.5,7.6,30.1,9.1v52l-30.1,15.1V384.2z M361.4,445.3v-52c10.6-1.5,20.8-4.6,30.1-9.1v76.2L361.4,445.3z M481.9,349.2
		h-49.1c11.9-17.1,19-37.9,19-60.2V110.1l-47-47H107.2l-47,47v162.1l47,47h138.1c3.2,10.9,8.2,21,14.6,30.1H30.1V33h451.8
		L481.9,349.2z"/>
	<path class="st0" d="M120.5,198.6h75.3v30.1h-75.3V198.6z"/>
	<path class="st0" d="M120.5,138.4h60.2v30.1h-60.2V138.4z"/>
	<path class="st0" d="M331.3,273.9h30.1v30.1h-30.1V273.9z"/>
</g>
</svg>
