<?xml version="1.0" encoding="utf-8"?>
<!-- Generator: Adobe Illustrator 22.0.1, SVG Export Plug-In . SVG Version: 6.00 Build 0)  -->
<svg version="1.1" id="Layer_1" xmlns="http://www.w3.org/2000/svg" xmlns:xlink="http://www.w3.org/1999/xlink" x="0px" y="0px"
	 viewBox="0 0 512 512" style="enable-background:new 0 0 512 512;" xml:space="preserve">
<style type="text/css">
	.st0{fill:#509DEA;}
</style>
<g>
	<g>
		<g>
			<path class="st0" d="M501.3,133.3h-10.7c0-5.9-4.8-10.7-10.7-10.7s-10.7,4.8-10.7,10.7H448c0-5.9-4.8-10.7-10.7-10.7
				c-5.9,0-10.7,4.8-10.7,10.7h-21.3V112c0-5.2-3.8-9.7-8.9-10.5l-55.1-9.2V80c0-5.9-4.8-10.7-10.7-10.7H128
				c0-5.9-4.8-10.7-10.7-10.7s-10.7,4.8-10.7,10.7H85.3c0-5.9-4.8-10.7-10.7-10.7S64,63.4,64,69.3H42.7c0-5.9-4.8-10.7-10.7-10.7
				s-10.7,4.8-10.7,10.7H10.7C4.8,69.3,0,74.1,0,80v128c0,5.9,4.8,10.7,10.7,10.7H73l-18.3,128H21.3c-5.9,0-10.7,4.8-10.7,10.7v85.3
				c0,5.9,4.8,10.7,10.7,10.7h192c5.9,0,10.7-4.8,10.7-10.7v-85.3c0-5.9-4.8-10.7-10.7-10.7h-41L183,272h22.6
				c5.3,0,9.8-3.9,10.6-9.1l6.2-42.7c0.1-0.5,0.1-1,0.1-1.5h108.2c5.9,0,10.7-4.8,10.7-10.7v-12.3l55.1-9.2
				c5.1-0.9,8.9-5.3,8.9-10.5v-21.3h21.3c0,5.9,4.8,10.7,10.7,10.7c5.9,0,10.7-4.8,10.7-10.7h21.3c0,5.9,4.8,10.7,10.7,10.7
				s10.7-4.8,10.7-10.7h10.7c5.9,0,10.7-4.8,10.7-10.7S507.2,133.3,501.3,133.3z M202.7,432H192c0-5.9-4.8-10.7-10.7-10.7
				s-10.7,4.8-10.7,10.7h-21.3c0-5.9-4.8-10.7-10.7-10.7S128,426.1,128,432h-21.3c0-5.9-4.8-10.7-10.7-10.7
				c-5.9,0-10.7,4.8-10.7,10.7H64c0-5.9-4.8-10.7-10.7-10.7s-10.7,4.8-10.7,10.7H32v-21.3h170.7V432z M202.7,368v21.3h0H32V368h32
				h96H202.7z M152.3,336l-1.5,10.7H76.3l1.5-10.7H152.3z M80.9,314.7l13.7-96H169l-13.7,96H80.9z M181.3,197.3h-96h-64V90.7h0H192
				v106.7L181.3,197.3L181.3,197.3z M196.3,250.7H186l4.6-32H201L196.3,250.7z M277.3,197.3h-64V90.7h64V197.3z M320,101.3v85.3
				v10.7h-21.3v-10.7c5.9,0,10.7-4.8,10.7-10.7s-4.8-10.7-10.7-10.7v-10.7c5.9,0,10.7-4.8,10.7-10.7s-4.8-10.7-10.7-10.7v-10.7
				c5.9,0,10.7-4.8,10.7-10.7s-4.8-10.7-10.7-10.7V90.7H320V101.3z M384,167l-42.7,7.1v-19.4h21.3c5.9,0,10.7-4.8,10.7-10.7
				s-4.8-10.7-10.7-10.7h-21.3v-19.4L384,121V167z"/>
			<path class="st0" d="M117.3,112h-64c-5.9,0-10.7,4.8-10.7,10.7c0,5.9,4.8,10.7,10.7,10.7h64c5.9,0,10.7-4.8,10.7-10.7
				C128,116.8,123.2,112,117.3,112z"/>
			<path class="st0" d="M117.3,154.7h-64c-5.9,0-10.7,4.8-10.7,10.7c0,5.9,4.8,10.7,10.7,10.7h64c5.9,0,10.7-4.8,10.7-10.7
				S123.2,154.7,117.3,154.7z"/>
		</g>
	</g>
</g>
</svg>
