<?xml version="1.0" encoding="utf-8"?>
<!-- Generator: Adobe Illustrator 22.0.1, SVG Export Plug-In . SVG Version: 6.00 Build 0)  -->
<svg version="1.1" id="Capa_1" xmlns="http://www.w3.org/2000/svg" xmlns:xlink="http://www.w3.org/1999/xlink" x="0px" y="0px"
	 viewBox="0 0 512 512" style="enable-background:new 0 0 512 512;" xml:space="preserve">
<style type="text/css">
	.st0{fill:#509DEA;}
</style>
<g>
	<path class="st0" d="M487,153.3h-11.5V118c0-13.3-10.4-24.2-23.5-25V57.5c0-13.8-11.2-25-25-25H192.5c-0.3-0.3-18.8-22.3-19-22.6
		C167.8,3.6,159.7,0,151.2,0H25C11.2,0,0,11.2,0,25v442c0,24.8,20.2,45,45,45h442c13.8,0,25-11.2,25-25V178.3
		C512,164.5,500.8,153.3,487,153.3z M445.5,123v30.3c-2.9,0-317.2,0-319,0V123H445.5z M421.3,183.3v143l-40.9-30.1
		c-7.4-5.5-17.4-5.5-24.8,0l-40.9,30.1v-143H421.3z M60,178.3V467c0,8.3-6.7,15-15,15s-15-6.7-15-15V30h121.2L171,53.6
		c4.8,5.7,11.7,8.9,19.1,8.9H422V93H121.5c-13.8,0-25,11.2-25,25v35.3H85C71.2,153.3,60,164.5,60,178.3z M482,482
		c-14.5,0-375.9,0-394.6,0c1.3-3.7,2.2-3.6,2.6-16V183.3h194.7v161c0,17.1,19.5,27,33.3,16.8l50-36.9l50,36.9
		c13.8,10.1,33.3,0.3,33.3-16.8v-161H482L482,482z"/>
</g>
</svg>
