<?xml version="1.0" encoding="utf-8"?>
<!-- Generator: Adobe Illustrator 22.0.1, SVG Export Plug-In . SVG Version: 6.00 Build 0)  -->
<svg version="1.1" id="Capa_1" xmlns="http://www.w3.org/2000/svg" xmlns:xlink="http://www.w3.org/1999/xlink" x="0px" y="0px"
	 viewBox="0 0 512 512" style="enable-background:new 0 0 512 512;" xml:space="preserve">
<style type="text/css">
	.st0{fill:#509DEA;}
</style>
<g>
	<path class="st0" d="M66.5,331.8h30v30h-30V331.8z"/>
	<path class="st0" d="M137.6,331.8h30v30h-30V331.8z"/>
	<path class="st0" d="M208.7,331.8h30v30h-30V331.8z"/>
	<path class="st0" d="M279.8,331.8h30v30h-30V331.8z"/>
	<path class="st0" d="M66.5,391.9h30v30h-30V391.9z"/>
	<path class="st0" d="M137.6,391.9h30v30h-30V391.9z"/>
	<path class="st0" d="M208.7,391.9h30v30h-30V391.9z"/>
	<path class="st0" d="M279.8,391.9h30v30h-30V391.9z"/>
	<path class="st0" d="M422,331.8h30v30h-30V331.8z"/>
	<path class="st0" d="M422,391.9h30v30h-30V391.9z"/>
	<path class="st0" d="M350.9,331.8h30v30h-30V331.8z"/>
	<path class="st0" d="M350.9,391.9h30v30h-30V391.9z"/>
	<path class="st0" d="M452,212.1v-88.5h-50.3V0H291.3v123.6h-67.4V0H113.6v123.6H66.5v122.8L0,279.5V512h512V186L452,212.1z
		 M422,225.2l-70.7,30.8v-70l-80.3,35v-67.3h151V225.2z M321.3,30h50.3v93.6h-50.3V30z M143.6,30h50.3v93.6h-50.3L143.6,30z
		 M96.5,153.6H241V234l-50.3,21.9v-71.3l-94.1,46.9L96.5,153.6z M482,482H30V298.1l130.7-65v68.6l160.7-70v70l160.7-70V482z"/>
</g>
</svg>
