<?xml version="1.0" encoding="utf-8"?>
<!-- Generator: Adobe Illustrator 22.0.1, SVG Export Plug-In . SVG Version: 6.00 Build 0)  -->
<svg version="1.1" id="Layer_1" xmlns="http://www.w3.org/2000/svg" xmlns:xlink="http://www.w3.org/1999/xlink" x="0px" y="0px"
	 viewBox="0 0 321.3 150.3" style="enable-background:new 0 0 321.3 150.3;" xml:space="preserve">
<style type="text/css">
	.st0{fill-rule:evenodd;clip-rule:evenodd;fill:#fff;}
	.st1{fill-rule:evenodd;clip-rule:evenodd;fill:#fff;}
	.st2{fill:#fff;}
</style>
<g>
	<path class="st0" d="M77,0c20.4,0.5,38.8,9.1,52,22.7l-9.4,9.4C108.8,20.9,93.8,13.8,77,13.3V0L77,0z M71.7,13.3
		c-32.6,1.8-58.4,28.8-58.4,61.8s25.9,60,58.4,61.8v13.3C31.8,148.4,0,115.5,0,75.2C0,34.8,31.8,1.9,71.7,0.1V13.3L71.7,13.3z
		 M77,137.1c17.8-0.5,33.7-8.5,44.6-21l9.4,9.4c-13.4,14.9-32.6,24.3-54,24.9V137.1L77,137.1z"/>
	<path class="st1" d="M77,19.9c14.9,0.3,28.3,6.7,37.9,16.7l-6.8,6.9c-7.9-8.3-18.9-13.5-31.1-13.9V19.9L77,19.9z M71.7,29.8
		c-22.9,2.1-40.8,21.6-40.8,45.4c0,23.7,17.9,43.2,40.8,45.4v9.8c-28.2-2.2-50.4-26-50.4-55.1c0-29.1,22.2-53,50.4-55.1V29.8
		L71.7,29.8z M77,120.7c13-0.3,24.6-6.2,32.6-15.4l6.8,6.9c-9.7,11-23.7,18-39.4,18.3V120.7L77,120.7z"/>
	<polygon class="st0" points="47.6,46 47.9,46 53,58.9 53,104 47.6,104 47.6,46 	"/>
	<polygon class="st0" points="49.9,43.8 55.3,43.8 79.5,104.2 74.1,104.2 49.9,43.8 	"/>
	<polygon class="st0" points="102,46 101.8,46 96.6,58.9 96.6,104 102,104 102,46 	"/>
	<polygon class="st0" points="99.7,43.8 94.3,43.8 76.4,88.6 79.1,95.4 99.7,43.8 	"/>
	<path class="st2" d="M130.3,28.8v21.9h5.2V33.1h0.7l7.5,17.5h7.4l7.5-17.5h0.7v17.5h5.2V28.8h-9.8l-7.3,17.5h-0.3L140,28.8H130.3
		L130.3,28.8z M173.5,42.7v-5.8c0-3.1,0.9-3.9,4.2-3.9h6.8c3.1,0,4.2,0.7,4.2,3.9v5.8c0,3-0.8,3.7-4.1,3.7h-6.9
		C174.4,46.3,173.5,45.5,173.5,42.7L173.5,42.7z M193.8,43.2v-6.9c0-6.2-2.5-7.8-7.9-7.8h-9.6c-6,0-8.1,1.8-8.1,7.8v6.9
		c0,5.3,2.2,7.5,8.1,7.5h9.6C192,50.7,193.8,48.7,193.8,43.2L193.8,43.2z M202.3,28.8H197v21.9h5.2v-9.2h13.5v9.2h5.2V28.8h-5.2v8.4
		h-13.5V28.8L202.3,28.8z M223.8,28.8v4.4h9.2v17.5h5.2V33.1h9.2v-4.4H223.8L223.8,28.8z M251.9,50.7l2.8-5.5h13l2.8,5.5h6.2
		l-11.5-21.9h-7.8l-11.6,21.9H251.9L251.9,50.7z M256.8,41l4.3-8.1h0.3l4.2,8.1H256.8L256.8,41z M296.9,50.7h5.2v-9.4h2.7l9.5,9.4h7
		L309.3,39l11.5-10.3h-7.4l-8.6,8.2h-2.6v-8.2h-5.2V37h-2.6l-8.6-8.2h-7.4L289.7,39l-12.1,11.6h7l9.5-9.4h2.7V50.7L296.9,50.7z
		 M150,78.3c0,2.7-1.1,3.2-4.2,3.2h-6.7c-3,0-4.2-0.6-4.2-4v-5.4c0-3.4,0.7-4,4.2-4h6.7c3,0,4.2,1,4.2,3.3h5.2
		c0-6.2-3.3-7.6-8.4-7.6h-8.7c-6.4,0-8.5,1.8-8.5,8.2v6.2c0,5.9,1.9,7.7,8,7.7h9.8c6.5,0,7.9-1.7,7.9-7.6H150L150,78.3z M157.9,64
		v4.4h9.2v17.5h5.2V68.4h9.2V64H157.9L157.9,64z M189,79.4h9.8c5.4,0,7.6-2.2,7.6-7.8c0-5.5-2.2-7.7-7.7-7.7h-14.9v21.9h5.2V79.4
		L189,79.4z M189,68.4h8.7c2.7,0,3.4,1.2,3.4,3.3c0,2.4-0.8,3.4-3.4,3.4H189V68.4L189,68.4z M214.3,77.9v-5.8c0-3.1,0.9-3.9,4.2-3.9
		h6.8c3.1,0,4.2,0.7,4.2,3.9v5.8c0,3-0.8,3.7-4.1,3.7h-6.9C215.2,81.6,214.3,80.8,214.3,77.9L214.3,77.9z M234.6,78.4v-6.9
		c0-6.2-2.5-7.8-7.9-7.8h-9.6c-6,0-8.1,1.8-8.1,7.8v6.9c0,5.3,2.2,7.5,8.1,7.5h9.6C232.8,85.9,234.6,83.9,234.6,78.4L234.6,78.4z
		 M243.5,64h-5.2v21.9h9l13.2-17.5h0.7v17.5h5.2V64h-8.8l-13.3,17.5h-0.7V64L243.5,64z M259,57.6h-4.3c0,2-0.6,2.2-3.3,2.2
		c-2.8,0-3.3-0.2-3.3-2.2h-4.3v0.3c0,3.2,1.2,4.5,7.5,4.5C258.3,62.4,259,60.7,259,57.6L259,57.6z M150,113.6c0,2.7-1.1,3.2-4.2,3.2
		h-6.7c-3,0-4.2-0.6-4.2-4v-5.4c0-3.4,0.7-4,4.2-4h6.7c3,0,4.2,1,4.2,3.3h5.2c0-6.2-3.3-7.6-8.4-7.6h-8.7c-6.4,0-8.5,1.8-8.5,8.2
		v6.2c0,5.9,1.9,7.7,8,7.7h9.8c6.5,0,7.9-1.7,7.9-7.6H150L150,113.6z M158.9,121.1h22.4V117h-17.1v-5h16.6v-3.8h-16.6v-4.8h17.1
		v-4.1h-22.4V121.1L158.9,121.1z M190.1,114.7h9.8c5.4,0,7.6-2.2,7.6-7.8c0-5.5-2.2-7.7-7.7-7.7h-14.9v21.9h5.2V114.7L190.1,114.7z
		 M190.1,103.6h8.7c2.7,0,3.4,1.2,3.4,3.3c0,2.4-0.8,3.4-3.4,3.4h-8.7V103.6L190.1,103.6z M215.5,103.4h10.7c1.5,0,2.2,0.9,2.2,2.2
		c0,1.5-0.7,2.6-2.1,2.6h-10.7V103.4L215.5,103.4z M210.3,121.1h16.9c5,0,7.3-1.7,7.3-6.4c0-3.4-1.4-4.4-3.6-5.1
		c1.8-0.6,2.7-1.3,2.7-4.9c0-4-2.7-5.5-7.5-5.5h-15.8V121.1L210.3,121.1z M215.5,112h10.7c2.7,0,3,0.8,3,2.5c0,1.9-0.4,2.6-3.2,2.6
		h-10.5V112L215.5,112z M243.6,99.2h-5.2v21.9h9l13.2-17.5h0.7v17.5h5.2V99.2h-8.8l-13.3,17.5h-0.7V99.2L243.6,99.2z M290.5,113.6
		c0,2.7-1.1,3.2-4.2,3.2h-6.7c-3,0-4.2-0.6-4.2-4v-5.4c0-3.4,0.7-4,4.2-4h6.7c3,0,4.2,1,4.2,3.3h5.2c0-6.2-3.3-7.6-8.4-7.6h-8.7
		c-6.4,0-8.5,1.8-8.5,8.2v6.2c0,5.9,1.9,7.7,8,7.7h9.8c6.5,0,7.9-1.7,7.9-7.6H290.5L290.5,113.6z"/>
</g>
</svg>
