<?xml version="1.0" encoding="utf-8"?>
<!-- Generator: Adobe Illustrator 22.0.1, SVG Export Plug-In . SVG Version: 6.00 Build 0)  -->
<svg version="1.1" id="Layer_1" xmlns="http://www.w3.org/2000/svg" xmlns:xlink="http://www.w3.org/1999/xlink" x="0px" y="0px"
	 viewBox="0 0 512 512" style="enable-background:new 0 0 512 512;" xml:space="preserve">
<style type="text/css">
	.st0{fill:#509DEA;}
</style>
<g>
	<path class="st0" d="M268.7,270.7l-84.5,99.8l23,19.5l126.6-149.5h-91.6l40.7-50.9l-23.5-18.8l-79.9,99.9H268.7z"/>
	<path class="st0" d="M506.5,161.6L452,126.5v-97h-90.5v38.7L256,0L5.5,161.6l31.4,85.9L75,225.5V512H437V225.5l38.2,22.1
		L506.5,161.6z M391.7,59.6h30.2V107l-30.2-19.5V59.6z M105.2,481.8v-30.2h301.6v30.2H105.2z M406.8,421.5H105.2V208L256,120.7
		L406.8,208V421.5z M459.1,203.4L256,85.8L52.9,203.4l-10.8-29.5L256,35.9l213.9,138L459.1,203.4z"/>
</g>
</svg>
