<?xml version="1.0" encoding="utf-8"?>
<!-- Generator: Adobe Illustrator 22.0.1, SVG Export Plug-In . SVG Version: 6.00 Build 0)  -->
<svg version="1.1" id="Layer_1" xmlns="http://www.w3.org/2000/svg" xmlns:xlink="http://www.w3.org/1999/xlink" x="0px" y="0px"
	 viewBox="0 0 512 512" style="enable-background:new 0 0 512 512;" xml:space="preserve">
<style type="text/css">
	.st0{fill:#509DEA;}
</style>
<path class="st0" d="M362.3,0H149c-35.8,0-65,29.2-65,65v382c0,35.8,29.2,65,65,65h213.3c35.8,0,65-29.2,65-65V65
	C427.3,29.2,398.2,0,362.3,0z M362.3,482H149c-19.3,0-35-15.7-35-35v-25.6h126.7V448h30v-26.6h126.7V447
	C397.3,466.3,381.6,482,362.3,482z M149,30h213.3c19.3,0,35,15.7,35,35v5.3H114V65C114,45.7,129.7,30,149,30z M397.3,391.4H114v-291
	h283.3V391.4z"/>
<path class="st0" d="M356,324.8v-158H155.3v158H356z M185.3,294.8v-81l70.3,58.5l70.3-58.5v81H185.3z M211.8,196.8h87.7l-43.9,36.5
	L211.8,196.8z"/>
</svg>
