<?xml version="1.0" encoding="UTF-8"?>
<!DOCTYPE svg PUBLIC "-//W3C//DTD SVG 1.1//EN" "http://www.w3.org/Graphics/SVG/1.1/DTD/svg11.dtd">
<!-- Creator: CorelDRAW 2018 (64-Bit) -->
<svg xmlns="http://www.w3.org/2000/svg" xml:space="preserve" width="844.379mm" height="236.35mm" version="1.1" style="shape-rendering:geometricPrecision; text-rendering:geometricPrecision; image-rendering:optimizeQuality; fill-rule:evenodd; clip-rule:evenodd"
viewBox="0 0 89752.55 25122.6"
 xmlns:xlink="http://www.w3.org/1999/xlink">
 <defs>
  <style type="text/css">
   <![CDATA[
    .fil0 {fill:#c9cacc}
   ]]>
  </style>
 </defs>
 <g id="Layer_x0020_1">
  <metadata id="CorelCorpID_0Corel-Layer"/>
  <g id="_3157953468160">
   <g>
    <path class="fil0" d="M67940.57 14521.23c45.78,274.74 68.7,480.78 114.48,686.87 457.9,1923.2 1968.98,3205.32 3937.98,3365.58 1740.03,137.4 3113.71,-526.6 4121.1,-1946.07 503.69,-686.87 1305.04,-801.35 1946.07,-251.87 366.3,320.52 412.13,732.64 114.48,1121.86 -160.26,206.04 -320.52,412.13 -480.78,641.08 -663.95,915.83 -1533.98,1534 -2610.02,1900.3 -1740.03,595.26 -3480.06,686.87 -5197.18,45.78 -2312.42,-847.12 -3686.1,-2541.38 -4075.32,-4968.22 -228.96,-1488.16 -91.56,-2976.38 595.26,-4327.19 984.47,-1923.21 2541.38,-3113.72 4693.48,-3457.14 1419.52,-228.96 2838.98,-91.56 4166.93,549.47 1877.38,892.91 3022.16,2403.98 3457.16,4418.76 114.47,549.47 160.25,1121.86 206.03,1671.34 45.78,343.43 -114.47,503.69 -480.77,526.6 -160.26,0 -320.52,0 -480.78,0 -3205.33,0 -6410.66,0 -9615.94,0 -91.67,22.86 -206.14,22.86 -412.18,22.86zm8768.8 -2106.33c-274.74,-1808.73 -2449.76,-3365.59 -4441.67,-3251.11 -2083.46,114.48 -4166.92,1717.12 -4235.57,3251.11 2861.89,0 5769.56,0 8677.24,0z"/>
    <path class="fil0" d="M53585.31 14475.45c22.92,183.18 45.78,320.52 68.7,457.92 389.22,2129.24 2129.25,3594.54 4281.41,3640.32 1625.56,22.92 2907.68,-641.08 3846.36,-1968.98 503.7,-709.74 1396.6,-778.43 2014.77,-160.26 297.66,320.52 343.43,686.86 68.7,1053.16 -114.48,183.18 -251.87,343.44 -389.22,503.7 -709.74,1030.3 -1671.34,1694.24 -2861.9,2083.46 -1740.04,572.39 -3480.06,618.18 -5151.4,-45.78 -2403.98,-938.68 -3754.8,-2770.34 -4029.54,-5334.58 -137.4,-1236.34 -22.92,-2449.76 503.7,-3571.62 984.47,-2152.17 2610.02,-3480.07 4991.14,-3800.58 1259.26,-160.26 2518.46,-68.7 3686.1,412.12 2106.34,870 3342.68,2495.54 3800.58,4716.41 91.56,503.69 137.4,1030.3 160.26,1534 22.92,412.12 -68.7,503.69 -503.69,503.69 -755.57,0 -1534,0 -2289.51,0 -2564.24,0 -5128.48,0 -7669.86,0 -160.31,-22.97 -320.57,-22.97 -526.61,-22.97zm8791.73 -2106.38c-274.74,-1785.82 -2381.06,-3296.9 -4441.67,-3251.11 -2014.76,45.78 -4098.24,1648.47 -4258.5,3251.11 2884.81,0 5769.57,0 8700.17,0z"/>
    <path class="fil0" d="M85501.11 15482.83c160.25,137.4 251.86,228.96 343.43,320.52 1121.86,961.61 2243.73,1900.3 3342.68,2861.9 68.7,68.7 160.26,137.4 228.96,206.04 412.12,412.13 457.9,1007.38 68.7,1419.52 -366.3,412.13 -961.61,480.78 -1396.6,114.48 -778.43,-641.09 -1534,-1305.04 -2289.51,-1946.08 -1098.94,-938.68 -2175.02,-1854.5 -3274.02,-2793.2 -91.56,-91.56 -206.04,-160.26 -366.3,-297.65 0,228.95 -22.92,366.29 -22.92,526.6 0,2632.94 0,5265.88 0,7898.82 0,114.48 0,251.87 0,366.3 -45.78,572.39 -480.78,984.47 -1053.16,961.6 -549.48,-22.92 -938.68,-434.99 -961.6,-1007.38 0,-114.48 0,-251.87 0,-366.3 0,-5197.18 0,-10394.36 0,-15591.59 0,-160.26 0,-320.52 0,-480.78 0,-366.29 45.78,-434.99 389.21,-434.99 480.78,-22.92 961.61,-22.92 1419.52,-22.92 1144.78,0 2312.42,45.78 3457.16,-22.92 1923.2,-91.56 4075.32,1465.3 4281.4,3731.88 183.18,2037.68 -1190.56,3960.84 -3274.02,4372.98 -251.82,45.78 -526.61,114.48 -892.9,183.17zm-3502.94 -1602.63c114.48,22.92 206.04,22.92 274.74,22.92 961.6,0 1923.2,0 2884.76,0 274.74,0 549.47,-22.92 824.21,-114.48 892.91,-274.74 1602.64,-801.35 1831.6,-1762.95 389.22,-1625.56 -824.22,-3136.64 -2495.54,-3136.64 -984.48,0 -1968.99,0 -2976.38,0 -114.48,0 -228.96,22.92 -343.44,22.92 0.05,1671.28 0.05,3296.84 0.05,4968.23z"/>
    <path class="fil0" d="M48113.4 14544.15c-1900.3,0 -3754.81,0 -5632.18,0 0,160.26 -22.92,320.52 -22.92,457.92 0,1442.38 0,2884.76 0,4327.19 0,183.17 0,366.29 -45.78,526.6 -137.4,435 -595.26,709.74 -1030.3,686.87 -480.78,-45.78 -870,-412.13 -938.69,-892.91 -22.92,-114.48 0,-228.96 0,-343.43 0,-5151.41 0,-10302.81 0,-15431.29 0,-206.04 22.92,-412.13 91.56,-595.26 160.26,-434.99 618.18,-686.86 1098.94,-618.16 435,68.7 801.35,435 847.13,892.9 22.92,137.4 0,274.74 0,412.13 0,2655.86 0,5288.8 0,7944.6 0,160.26 22.92,320.52 22.92,457.92 343.43,91.56 5242.96,91.56 5609.32,0 0,-114.48 22.91,-251.87 22.91,-389.22 0,-1167.64 0,-2335.28 0,-3502.93 0,-114.48 0,-228.96 0,-343.44 45.78,-526.61 435,-915.83 961.61,-938.69 526.6,-22.91 984.47,366.3 1053.16,892.91 22.92,114.48 0,228.96 0,343.44 0,3617.4 0,7234.86 0,10852.27 0,114.48 0,228.96 0,343.44 -68.7,526.61 -526.61,938.68 -1030.3,915.82 -526.61,-22.91 -938.69,-434.99 -984.48,-961.6 0,-114.48 0,-228.96 0,-343.44 0,-1396.6 0,-2816.11 0,-4212.7 -22.91,-137.5 -22.91,-297.82 -22.91,-480.94z"/>
    <path class="fil0" d="M33574.96 20588.46c-1350.82,-22.92 -2610.02,-320.52 -3777.72,-1007.39 -503.69,-297.65 -961.6,-663.95 -1327.9,-1098.94 -183.18,-228.96 -366.29,-480.77 -503.69,-755.56 -228.96,-435 -137.4,-778.43 206.04,-1121.86 389.21,-366.3 938.68,-526.61 1465.29,-160.26 251.87,183.18 480.78,412.12 686.87,641.08 206.04,206.04 366.3,435 572.38,641.09 618.18,618.16 1373.68,961.6 2243.73,1053.16 801.34,91.56 1602.64,68.7 2381.06,-206.04 320.52,-114.48 641.08,-274.74 915.82,-480.78 663.96,-503.69 686.87,-1350.82 45.78,-1877.37 -297.65,-251.87 -663.95,-435 -1030.3,-595.26 -915.82,-389.22 -1854.51,-663.95 -2816.12,-915.82 -778.42,-183.18 -1534,-435 -2312.42,-663.96 -297.66,-91.56 -572.39,-251.86 -847.12,-389.21 -732.65,-389.22 -1144.79,-1007.39 -1259.26,-1808.73 -228.96,-1625.56 389.21,-2930.59 1854.5,-3640.32 2243.72,-1098.94 4510.32,-1190.56 6731.18,91.56 412.13,228.96 801.34,572.38 1167.64,892.9 274.74,228.96 457.92,572.39 572.39,915.82 183.18,595.26 -114.48,892.91 -641.09,1007.39 -457.9,91.56 -869.99,-45.78 -1190.56,-389.22 -68.7,-68.7 -114.48,-137.4 -160.26,-206.04 -526.6,-778.42 -1282.12,-1213.42 -2197.94,-1396.6 -915.82,-160.26 -1831.6,-137.4 -2701.64,206.04 -320.52,114.48 -641.08,297.66 -892.9,526.61 -618.18,526.6 -618.18,1236.34 -22.92,1785.81 389.21,366.3 847.12,572.39 1350.82,686.87 1098.94,274.73 2220.8,549.47 3319.8,824.21 709.74,183.18 1396.6,412.13 2037.69,778.42 824.21,435 1419.52,1076.09 1625.55,2014.77 251.87,1144.78 0,2152.16 -892.9,2976.38 -1007.38,915.82 -2175.02,1442.38 -3525.84,1602.64 -366.19,22.81 -732.55,45.67 -1075.98,68.59z"/>
   </g>
   <g>
    <path class="fil0" d="M13244.1 2844.75c91.56,-457.92 160.26,-847.12 228.95,-1259.26 824.22,-68.7 3205.33,1053.16 4533.24,2175.02 2312.42,1946.08 3663.24,4418.76 3915.06,7418.05 572.39,6227.48 -3937.98,11287.26 -9638.85,11951.27 -6181.7,709.73 -11539.14,-3709.02 -12203.08,-9638.85 -732.65,-6273.31 3731.94,-10898.11 8173.55,-11882.58 68.7,435 137.4,847.12 228.96,1305.04 -183.18,68.7 -320.52,114.48 -480.77,160.26 -3640.33,1304.98 -5815.36,3846.36 -6525.15,7646.94 -228.95,1236.34 -160.25,2472.68 137.4,3709.02 45.78,206.04 137.4,366.3 297.66,503.7 1236.34,1167.64 2678.72,1968.98 4281.41,2518.46 1923.2,663.96 3892.14,869.99 5906.96,732.64 2381.08,-160.25 4624.8,-847.12 6639.56,-2175.02 435,-297.66 847.13,-663.95 1282.12,-984.47 206.04,-160.26 297.66,-343.44 366.3,-595.26 686.87,-3365.58 -91.56,-6319.04 -2426.9,-8837.5 -1190.56,-1282.12 -2678.72,-2152.17 -4372.98,-2610.02 -137.34,-68.8 -228.95,-91.67 -343.43,-137.45zm-10966.76 13324.96c1144.78,2861.9 4601.92,6067.22 9638.85,5632.18 2175.02,-206.04 4075.32,-1076.08 5678,-2587.16 984.48,-938.69 2014.77,-2403.98 2083.47,-3045.07 -2587.16,1968.99 -5494.84,2884.76 -8700.17,2884.76 -3205.32,0.05 -6135.92,-938.63 -8700.16,-2884.71z"/>
    <path class="fil0" d="M10863.02 5.72c457.92,0 915.83,22.92 1350.82,0 686.87,-45.78 915.83,480.78 824.22,984.47 -68.7,457.92 -160.26,915.83 -228.96,1373.68 -91.56,549.48 -206.04,1076.09 -274.74,1625.56 -91.56,595.26 -389.22,801.35 -915.82,778.43 -526.61,-22.92 -1053.16,0 -1579.78,0 -526.61,0 -755.56,-183.18 -847.12,-709.74 -137.4,-801.34 -274.74,-1602.64 -412.13,-2403.98 -45.78,-228.96 -91.56,-457.92 -114.48,-709.74 -68.7,-549.47 228.96,-915.82 778.43,-915.82 457.96,-45.73 938.74,-22.86 1419.56,-22.86z"/>
    <path class="fil0" d="M12763.32 9759.05c0,-1602.64 1282.12,-2884.76 2884.76,-2884.76 1602.64,0 2907.68,1282.12 2907.68,2884.76 0,1625.56 -1305.04,2930.59 -2907.68,2907.68 -1625.56,-22.86 -2884.76,-1305.04 -2884.76,-2907.68zm732.64 -45.78c-22.92,1213.42 961.61,2197.94 2152.17,2220.8 1167.64,0 2175.02,-961.6 2175.02,-2152.16 22.92,-1213.42 -961.6,-2197.95 -2152.16,-2197.95 -1190.56,0.05 -2175.03,961.66 -2175.03,2129.31z"/>
    <path class="fil0" d="M6329.8 12758.34c-1602.64,0 -2907.68,-1305.04 -2884.76,-2907.68 0,-1625.56 1305.04,-2884.76 2930.59,-2907.68 1305.04,0 2861.9,1007.38 2861.9,2884.76 22.81,1946.07 -1579.83,2976.37 -2907.73,2930.59zm45.78 -732.65c1190.56,0 2152.16,-984.47 2152.16,-2152.16 0,-1190.56 -984.47,-2175.03 -2197.94,-2175.03 -1167.64,0 -2152.17,1007.39 -2152.17,2175.03 0,1190.56 984.53,2152.16 2197.95,2152.16z"/>
    <path class="fil0" d="M15671 8682.97c618.16,0 1076.08,434.99 1076.08,1053.16 0,618.16 -480.78,1121.86 -1076.08,1098.94 -572.39,0 -1076.08,-503.7 -1076.08,-1076.08 22.92,-595.21 480.82,-1053.11 1076.08,-1076.03z"/>
    <path class="fil0" d="M6375.58 10949.61c-595.26,0 -1076.08,-480.78 -1076.08,-1076.08 0,-595.26 480.77,-1076.08 1076.08,-1076.08 595.25,0 1098.94,503.69 1076.08,1098.94 0,595.3 -457.92,1053.22 -1076.08,1053.22z"/>
   </g>
  </g>
 </g>
</svg>
