<svg width="100" height="108" viewBox="0 0 100 108" fill="none" xmlns="http://www.w3.org/2000/svg">
<path d="M91.6 60.5C89 82.4 73.3 83.8 70.4 84.8C69.2 85.2 57.7 88.1 43.4 87.2L27.8 104.5V84.6H27.7C6.8 78.6 7.5 56.3 7.7 44.6C7.9 32.9 10.1 23.3 16.5 16.8C28 6.2 51.6 7.8 51.6 7.8C71.6 7.9 81.1 14 83.3 16.1C90.6 22.5 94.4 37.9 91.6 60.5ZM88.7 10.5C86.1 8.1 75.5 0.2 51.9 0.1C51.9 0.1 24.1 -1.6 10.5 11.1C3 18.8 0.299998 30.1 0.099998 44.1C-0.200002 58.1 -0.500002 84.4 24.2 91.5V102.4C24.2 102.4 24 106.8 26.9 107.7C30.3 108.8 32.3 105.4 35.6 101.8C37.4 99.8 39.9 96.9 41.7 94.7C58.6 96.2 71.6 92.8 73.1 92.3C76.5 91.2 95.8 88.6 99 62.4C102.2 35.4 97.4 18.2 88.7 10.5Z" fill="#7360F2"/>
<path d="M73.6 63.8C73.6 63.8 70.4 61.1 68.9 59.9C67.4 58.8 65.1 57.3 63.8 56.6C61.5 55.3 59.1 56.1 58.1 57.4L56.1 60C55.1 61.3 53.4 61.1 53 61C50 60.2 46.8 58.4 43.5 55.2C40.2 52 38.2 48.6 37.5 45.2L37.4 45C37.2 43.6 37.4 42.9 38 41.9L38.1 41.8C39.5 40.5 42 39 42.4 37.5C43.4 34.9 39 29.5 38.4 28.6C38.4 28.6 35.2 24.4 34.1 23.6C32.9 22.6 31 22 29.1 23.2H29C23.5 26.9 21.6 29 22.1 32.2L22.4 33.5C25.2 42.2 30.5 51.6 38.5 59.9C46.4 68 55 72.9 63.4 76.3C65.6 77 67.9 76.4 70.2 74.4C72 72.7 73.4 70.9 74.4 69C75.5 67 75.1 65.1 73.6 63.8Z" fill="#7360F2"/>
<path d="M60.5 44.6C60.2 44.6 59.9 44.3 59.9 44C59.8 41.7 59.2 40 58.1 38.8C57 37.6 55.4 37 53.3 36.9C53 36.9 52.7 36.6 52.7 36.2C52.7 35.8 53 35.6 53.4 35.6C55.9 35.7 57.8 36.5 59.1 37.9C60.4 39.3 61.1 41.3 61.3 43.9C61.2 44.3 60.9 44.6 60.5 44.6Z" fill="#7360F2"/>
<path d="M66.7 46.8C66.3 46.8 66.1 46.5 66.1 46.1C66.2 41.8 64.9 38.1 62.3 35.2C61 33.7 59.4 32.6 57.6 31.8C55.8 31 53.7 30.5 51.3 30.3C51 30.3 50.7 30 50.7 29.6C50.7 29.2 51 29 51.4 29C56.4 29.4 60.4 31.2 63.2 34.3C66 37.5 67.4 41.4 67.3 46.1C67.4 46.5 67.1 46.8 66.7 46.8Z" fill="#7360F2"/>
<path d="M73.1 49.3C72.8 49.3 72.5 49 72.5 48.7C72.5 44.9 71.9 41.4 70.8 38.4C69.7 35.4 68 32.8 65.8 30.6C63.6 28.4 61.1 26.7 58.4 25.6C55.7 24.5 52.6 23.9 49.3 23.9C49 23.9 48.7 23.6 48.7 23.3C48.7 22.9 49 22.7 49.3 22.7C56.2 22.8 62 25.1 66.7 29.8C69 32.1 70.8 34.9 72 38.1C73.2 41.3 73.8 44.9 73.8 48.9C73.8 49 73.5 49.3 73.1 49.3Z" fill="#7360F2"/>
</svg>
