<svg width="100" height="101" viewBox="0 0 100 101" fill="none" xmlns="http://www.w3.org/2000/svg">
<g clip-path="url(#clip0)">
<path d="M85.4 14.6C76 5.2 63.5 0 50.2 0C22.8 0 0.4 22.3 0.4 49.8C0.4 58.6 2.7 67.1 7 74.7L0 100.5L26.4 93.6C33.7 97.6 41.9 99.7 50.2 99.7C77.6 99.7 100 77.4 100 49.9C100 36.5 94.8 24 85.4 14.6ZM50.2 91.2C42.8 91.2 35.5 89.2 29.1 85.4L27.6 84.5L12 88.7L16.2 73.4L15.2 71.8C11.1 65.2 8.9 57.6 8.9 49.8C8.8 27 27.4 8.4 50.2 8.4C61.3 8.4 71.6 12.7 79.5 20.5C87.3 28.3 91.6 38.7 91.6 49.8C91.6 72.6 73 91.2 50.2 91.2ZM72.9 60.2C71.7 59.6 65.5 56.6 64.4 56.2C63.3 55.8 62.4 55.6 61.6 56.8C60.8 58 58.4 60.8 57.7 61.7C57 62.5 56.2 62.6 55 62C53.8 61.4 49.7 60.1 45 55.8C41.3 52.5 38.8 48.4 38.1 47.2C37.4 46 38 45.3 38.6 44.7C39.2 44.1 39.8 43.2 40.5 42.5C41.1 41.8 41.3 41.3 41.7 40.4C42.1 39.6 41.9 38.8 41.6 38.2C41.3 37.6 38.8 31.5 37.8 29C36.8 26.6 35.8 26.9 35 26.9C34.3 26.9 33.4 26.9 32.6 26.9C31.8 26.9 30.4 27.2 29.3 28.5C28.2 29.7 24.9 32.8 24.9 38.9C24.9 45 29.4 50.9 30 51.8C30.6 52.6 38.8 65.2 51.3 70.6C54.3 71.9 56.6 72.6 58.4 73.2C61.4 74.1 64.1 74 66.2 73.7C68.6 73.3 73.6 70.7 74.6 67.8C75.6 64.9 75.6 62.4 75.3 61.9C75 61.1 74.2 60.8 72.9 60.2Z" fill="white"/>
</g>
<defs>
<clipPath id="clip0">
<rect width="100" height="100.5" fill="white"/>
</clipPath>
</defs>
</svg>
