<?xml version="1.0" encoding="utf-8"?>
<!-- Generator: Adobe Illustrator 22.0.1, SVG Export Plug-In . SVG Version: 6.00 Build 0)  -->
<svg version="1.1" id="Capa_1" xmlns="http://www.w3.org/2000/svg" xmlns:xlink="http://www.w3.org/1999/xlink" x="0px" y="0px"
	 viewBox="0 0 512 512" style="enable-background:new 0 0 512 512;" xml:space="preserve">
<style type="text/css">
	.st0{fill:#509DEA;}
</style>
<g>
	<path class="st0" d="M363.3,311.7c11.8-19.2,18.6-41.7,18.6-65.8v-34.2h30v-90h-30.1c-2.1-45.5-32.7-84.3-75.8-97.2V0H206v24.5
		c-43.1,12.9-73.7,51.6-75.8,97.2h-30.1v90h30v34.2c0,24.1,6.8,46.6,18.6,65.8L30,345.5V512h452V345.5L363.3,311.7z M256,401.9
		c-27.7,0-46.7-12.6-57.9-38.5c-1-2.4-2-4.8-2.8-7.2c18,10,38.7,15.7,60.7,15.7s42.7-5.7,60.7-15.7c-0.8,2.4-1.8,4.8-2.8,7.2
		C302.7,389.3,283.7,401.9,256,401.9L256,401.9z M170.2,374.4c7,16.4,16.7,29.6,29,39.2c11.9,9.3,25.9,15.1,41.8,17.3V482H120.1
		V351.1l40.4-11.5C162,349.4,164.8,361.9,170.2,374.4z M271,430.9c15.9-2.2,30-8,41.8-17.3c12.3-9.6,22-22.8,29-39.2
		c5.3-12.5,8.2-25,9.7-34.8l40.4,11.5V482H271L271,430.9z M351.7,121.7H306V56.4C331.9,67.7,349.9,92.7,351.7,121.7z M276,30v91.7
		H236V30H276z M206,56.4v65.3h-45.7C162.1,92.7,180.1,67.7,206,56.4z M130.1,151.7h251.8v30H130.1V151.7z M351.9,211.8v34.2
		c0,52.9-43,95.9-95.9,95.9s-95.9-43-95.9-95.9v-34.2H351.9z M60,368.2l30-8.6V482H60L60,368.2z M452,482h-30V359.6l30,8.6V482z"/>
</g>
</svg>
